/* XPM */
static char *Hephaestus[] = {
/* columns rows colors chars-per-pixel */
"48 48 256 2",
"   c #312F2D",
".  c #35332D",
"X  c #3A362E",
"o  c #3D392E",
"O  c #353330",
"+  c #3A3630",
"@  c #3D3A31",
"#  c #433C2E",
"$  c #4C3C2F",
"%  c #443731",
"&  c #433D32",
"*  c #443E38",
"=  c #4A3E32",
"-  c #523E32",
";  c #593E32",
":  c #45402D",
">  c #4B412F",
",  c #464133",
"<  c #454138",
"1  c #4B4234",
"2  c #4D4438",
"3  c #4E4837",
"4  c #4C483A",
"5  c #53422F",
"6  c #5C442E",
"7  c #534433",
"8  c #524438",
"9  c #554935",
"0  c #544C3B",
"q  c #5B4533",
"w  c #5C4A35",
"e  c #594C38",
"r  c #584538",
"t  c #5C5235",
"y  c #5C523C",
"u  c #5E583E",
"i  c #52503F",
"p  c #63442E",
"a  c #69452E",
"s  c #634533",
"d  c #644A34",
"f  c #664B39",
"g  c #6B4533",
"h  c #6C4B34",
"j  c #6B4B3A",
"k  c #655135",
"l  c #63533B",
"z  c #655B3F",
"x  c #6B5135",
"c  c #6B543A",
"v  c #6E5C3C",
"b  c #734635",
"n  c #744C34",
"m  c #7C4D34",
"M  c #7C4D3A",
"N  c #794B34",
"B  c #745235",
"V  c #755139",
"C  c #745836",
"Z  c #7C5334",
"A  c #7B5539",
"S  c #7D5A36",
"D  c #7C5B3A",
"F  c #735B3B",
"G  c #7D663A",
"H  c #4F4C40",
"J  c #554E41",
"K  c #5A5743",
"L  c #675640",
"P  c #635B42",
"I  c #695D40",
"U  c #735E41",
"Y  c #6E6244",
"T  c #746544",
"R  c #7A6A46",
"E  c #7D7045",
"W  c #824E34",
"Q  c #844D38",
"!  c #8C4D36",
"~  c #824531",
"^  c #835335",
"/  c #845339",
"(  c #855836",
")  c #845A39",
"_  c #8B5434",
"`  c #8C5439",
"'  c #8C5C36",
"]  c #895D39",
"[  c #934E33",
"{  c #925533",
"}  c #935B35",
"|  c #915B3A",
" . c #9B5634",
".. c #9C5B35",
"X. c #9B5C3B",
"o. c #87633B",
"O. c #836C3F",
"+. c #8B623A",
"@. c #886136",
"#. c #86733C",
"$. c #936437",
"%. c #956239",
"&. c #956B3C",
"*. c #9C6339",
"=. c #9D6D3A",
"-. c #9A6837",
";. c #96713D",
":. c #9D723B",
">. c #957B3D",
",. c #A74B34",
"<. c #A74A35",
"1. c #A95E35",
"2. c #A45C35",
"3. c #BE4D2F",
"4. c #B54B32",
"5. c #B15F38",
"6. c #A1643B",
"7. c #A36936",
"8. c #A36C3B",
"9. c #AD6634",
"0. c #A86739",
"q. c #AC6C34",
"w. c #AA6D3A",
"e. c #A46235",
"r. c #A7733C",
"t. c #AA753A",
"y. c #AE793D",
"u. c #A97436",
"i. c #B36E2F",
"p. c #B1673C",
"a. c #B46E37",
"s. c #B36B39",
"d. c #B96F35",
"f. c #B96D3B",
"g. c #B36436",
"h. c #B67434",
"j. c #B4733A",
"k. c #B67D3C",
"l. c #BC7436",
"z. c #BB7539",
"x. c #BD7D3B",
"c. c #BA7A34",
"v. c #856C45",
"b. c #8B7647",
"n. c #916F42",
"m. c #937443",
"M. c #9A7A48",
"N. c #957F50",
"B. c #8D7B54",
"V. c #AA7C40",
"C. c #A17941",
"Z. c #B37B41",
"A. c #CA4D32",
"S. c #C14B32",
"D. c #C95331",
"F. c #D94E2E",
"G. c #D5522E",
"H. c #DB5533",
"J. c #D75633",
"K. c #C37C36",
"L. c #C27D3A",
"P. c #C0773B",
"I. c #C07C42",
"U. c #D37742",
"Y. c #AC803F",
"T. c #BB823E",
"R. c #BC8A3D",
"E. c #B4843D",
"W. c #9D834C",
"Q. c #96844F",
"!. c #978555",
"~. c #AD8344",
"^. c #AA8949",
"/. c #AF9448",
"(. c #B58242",
"). c #B68647",
"_. c #B8994E",
"`. c #BB9F5A",
"'. c #B29159",
"]. c #A38D58",
"[. c #A99567",
"{. c #B49E60",
"}. c #B89C62",
"|. c #B29B6B",
" X c #B09F76",
".X c #BBA557",
"XX c #AFA263",
"oX c #BAA56A",
"OX c #BBA874",
"+X c #C58436",
"@X c #C2843D",
"#X c #C48A3C",
"$X c #CB8F37",
"%X c #CC8D3E",
"&X c #C98038",
"*X c #CD943F",
"=X c #CD983F",
"-X c #C09037",
";X c #D4953A",
":X c #D2A53E",
">X c #C78A45",
",X c #C69549",
"<X c #CC9643",
"1X c #CD9944",
"2X c #CB9A4A",
"3X c #C69447",
"4X c #D08E48",
"5X c #D39444",
"6X c #D99D46",
"7X c #D69D49",
"8X c #C09765",
"9X c #C7A14C",
"0X c #CEA250",
"qX c #C1A657",
"wX c #CAB15F",
"eX c #D6A141",
"rX c #D3A24B",
"tX c #DAA349",
"yX c #DAA848",
"uX c #D3A550",
"iX c #D4AB53",
"pX c #DAAC52",
"aX c #DDB049",
"sX c #DCB254",
"dX c #DDB459",
"fX c #DBB45B",
"gX c #C2AE77",
"hX c #CAB467",
"jX c #C6B678",
"kX c #D3AF61",
"lX c #DEBA62",
"zX c #DFBE6A",
"xX c #D4BE74",
"cX c #E1A749",
"vX c #E1AF51",
"bX c #E2B24C",
"nX c #E5BB5C",
"mX c #D9C376",
"MX c #D8C16B",
"NX c #E7C46C",
"BX c #EACB73",
"VX c #EACE7A",
"CX c #E7C870",
"ZX c #C4B383",
"AX c #C6B98E",
"SX c #CABC84",
"DX c #D3B380",
"FX c #CCC397",
"GX c #CFC59D",
"HX c #D1C489",
"JX c #DACF9E",
"KX c #D5CBA5",
"LX c #DFD2AB",
"PX c #E8DA94",
"IX c #E5DABE",
"UX c #E5DECA",
/* pixels */
"0 9 0 3 7 3 , = , , = , & & * # & & 7 = $ 7 7 @ X o # # , , 3 7 = & = , & & # & = # = # # # @ X ",
"0 9 3 0 3 # $ = = , = & * & # = # = 2 1 1 = 2 * X & & & = 1 > , = & & > , = & # $ & # # + o X X ",
"J 2 * 1 , , 1 # # % o # # & # = = , = 1 , 1 , , @ * # & $ > 1 $ = # # 1 = % # = # * # @ + X X % ",
"0 , & o # = , # + & # & # # * = , , , , 3 1 8 2 , & @ # , 3 > 7 = $ = $ = X # & = # @ # # + @ + ",
"J 1 @ # & * o o # & , & # , = * , 7 1 $ , w w q 1 , & = 7 > 6 1 1 5 7 $ & & & & # # # @ o X X # ",
"J 1 & & & , & & , = , & * & V h n ^ W q 7 q q 8 2 = & 7 7 5 6 q q q 1 = , , , , & # & # # X + o ",
"0 3 : , & & : , & & , < 2 ' g. .N W Q q 1 8 9 8 & , & 7 7 7 q q q ; = , & , , & @ & & % + + X + ",
"1 1 , , * & , # = = & @ q | *.[ g g W q q r 7 7 7 , & 5 q s q ; 7 1 , & < & , & * & & # o X X + ",
"1 1 1 3 1 1 1 , = = 7 h j r B n ; N / ; 7 8 = 8 7 3 1 7 w p 9 w 7 , & * * , , * * , & & X + . X ",
"3 1 3 , 1 1 , , & k f w 7 %._ h w.} d 1 8 ! 4.b 7 7 7 q p w 9 7 1 7 < & , * 2 < @ & @ o . X @ o ",
"2 1 > , 3 7 , 3 = 3 , 1 * x.w.2.*.d = 7 m 4.A.[ 9 9 9 w d g w 7 3 , 2 2 , , < = , , o @ @ @ o # ",
"= , = 1 7 1 , 1 , 2 , & -.#X0.*.= # g <.S.3.<.M h w w h 6 s 6 1 1 2 1 , 2 , , 1 , , @ @ @ o o o ",
"# & & , 7 7 3 , & , @ ) >Xj.| q & g 3.A.A.<.Q L ` M 2 f n d q q > 3 9 1 3 3 0 1 , & @ @ @ @ & & ",
"# & & > > 1 , @ & & ) 4XR.e.g & 7 4.J.F.A.<.M b L 8 @ < h f w 9 5 7 3 7 7 3 1 1 , , * @ @ & * # ",
"& & = 3 1 , @ < @ Z %X@Xj.W ; @ ~ H.H.F.A.4.<.b = % * @ , q w s 9 7 7 7 7 3 , , & , * o o @ @ o ",
"& * , , , 1 , @ n <X<Xx.^ q & & <.H.J.F.A.<.b % @ * @ @ & 9 9 e q 7 , 1 7 , , & , , & o @ o o o ",
"# = = 1 7 w q s @XtX2Xu.n 7 # & ,.H.J.U.6.F 2 @ @ * , , 3 t 0 9 0 9 7 7 3 , , & , & & & @ @ o o ",
"= 7 1 r V S s -.tXrX3Xy.n - = , N D.>XdX~.8.h @ @ ; j f s F n n n V f 0 7 2 , & * & @ @ o X . o ",
"= , w m }  ._ u.tXrX*X7.b > 3 t v N.3XuX6Xf.[ q 0 n Q f f A *.h.h.j.| f f r 1 & & # + + o + X X ",
"= 7 n ^ ! Q W T.fX*Xj.! g n m Z O.!.Z.P.r.` ....n V W W W ..>XyXtX<Xj.^ f h f 0 & & @ + X + o + ",
"= q h W ! { W kXzX+X9.W _ { _ Z #.!.SXV. .2.f.} f V Q  .2.e.uXfX0X0X>X' n h d x d = # @ + @ # # ",
"= q q q Z b ' BXlX#Xh.@X+Xj.i.u.OXXXHX>X .P.5.Q q s V { ..9.0X3X1XuX@Xy.%.f f n B s # @ @ # o # ",
"; s w w B h B rXnX+X#X4X#X$X$X,XIXFXGXjXb A / n f s j [ ..h.1X2XiXlXuXR.C.M 7 h V B 3 @ @ X @ & ",
"q b n h d d s x y.u.:.=.:.Y.,X9XLXUXKXJX8X` n 7 r q / ` ..R.<X7XNXVXlX(.X.f 7 g h V h & o X X X ",
"M n h n W W ` b d 6 , = , 1 w C [.JXGXAXgX} n 7 f j.0.! 1.%XrXiXBXVXiXE.+.q 7 d w h n q # X + X ",
"p.0.( n W ^ ` ^ Z 6 # # & & @ l M.oXSXZXOXv.s c '.eXl.1.L.yXpXdXBXBXiX/.) s 0 ; ; h n q * + X X ",
"0.g.a.0...^ m W ^ d & & , , , l W.`.qX].OX XG [.OXR.h.s.&X:XrXpXCXVXsXr.f n d 7 7 n m d = + X X ",
"n N ^ _ } 1._ Z n d & # = , , $ G `.G b.N.OX`.gXAXE.#Xt.+X%X@X7XlXNXuX^ s m w 9 d m s d - # X X ",
"Z *.' n Z 5. .N n s & # & & , , , 1 $ e R hXQ.OXKX}.q.X.j.K.P.&XsXsXR.@.g h 1 q 6 w 6 6 7 # . X ",
"E.=Xj.' Z } W h n s # & & $ 1 = # # , . y }.}.W.ZXgX' _ *.@Xg.c.yXpX1X:.g p ; q s g 5 1 6 & X X ",
">X=Xt.$.B n h h ^ q & & , , , , # # : & # !.!.D !.SXv.s ' s.1.K.pXnX2X` g d g Z n g s q ; # X # ",
"3X#Xq.m h h d Z W = & # , , , & & , & & & 8 l w f ZX[.h h } 2.5XsXsXk.n b p g n 6 n m s # % X & ",
"uXrX+X} d x Z Z 5 , 1 1 , , , , , & & @ & , 1 , , R [.G o.Z 6.pXbX<X} n n } a p 6 a 6 # # # o # ",
",XrX+X_ d Z ( h 1 0 i , , , 1 , & # @ & @ & * , , # Y Y L o.Z.nXyX#X^ f @.h.W a a p # > > , X o ",
"3Xx.7.C x m ( d 3 3 3 , < < & , # @ # @ & & @ @ * * & L 0 w T.bXeXl.n p ^.y.^ 6 : # # # & # & # ",
"k.k.$.B x C d 1 > 3 < o , , @ & @ + + o @ # @ @ o o @ & L f C.cXeXd.n q v.k 9 1 # # # # o # o # ",
"y.*.B B B t i 2 1 < , & : < @ & o # = 1 & @ # & # + # * = d 7.6X5X2.p l b.b.U 7 $ & o . @ & o $ ",
":.$.C S c 0 i H H & # & @ & o o @ q h q * # & & # # # $ g q.4XcXL.m 6 D M.v , & o @ o . # & , : ",
"(.$.o.o.t z K P i 3 @ o @ , o : - $ # # & & & & & * $ n #XcX5XZ.~ a q ( h o o & @ o o . # : 3 9 ",
";.C.;.v Y z z z 1 , & # & , 9 7 & # = = , = - = & q %.K.;Xz. .g d b d ) 7 & & # o o o . > : , 9 ",
"^./.>.Y K G P 9 , o o , , # x & = = % # # # % % g (.6X$Xh.w.+.d w s A f , , @ o X X o o t 3 : 3 ",
".X_.>.G Q.Y 0 , & & : o # q q # % 7 d p p ; C :.1X6XL.j.+.D c 9 w ] m = , @ + + X X . @ u i , 9 ",
"mXhX/..XE & o @ @ o o l ~.C # d V.>X5Xx.9.h.5X1X(.&.n d q 7 , & C ) 7 o o X . . . @ @ @ : . , t ",
"MXMXmXQ., @ # o < i !.BX(.> c ).M.Z -.tXL.w.*.@.s = = 1 & # o , o.h . @ @ . + + + . o o .   . : ",
"mXPXhXm.f 9 7 u K J R B.T L l 0 # w k.l._ ; $ & = & # @ o @ o 1 ) & . . . . . . o . X o X . . o ",
"jXhXqX_.u.(.9XnX>XP J & , # X # B 0.*.a ; 7 = # o o @ & , # , 3 7 .     O . . . o : o . . .   # ",
"o.-.u.u.t.E.E.q._ u 3 &.~ $ % $ p 6 6 p p 7 = * @ @ @ @ * @ * @ .   O O . O . X o o . . . . . o ",
"d O.;.;.&.] Z n q # # 6 $ % X % % # $ 5 > $ # X X . X @ @ , * . O O + . + @ o X o . .   .     o "
};
